<svg width="83" height="50" viewBox="0 0 83 50" fill="none" xmlns="http://www.w3.org/2000/svg">
<path fill-rule="evenodd" clip-rule="evenodd" d="M45.1169 9.87449C43.5531 10.2275 42.5226 11.4206 42.6265 13.3641C42.7765 16.1621 43.873 15.7965 42.2139 17.9816C41.651 18.723 39.874 20.5861 41.0144 21.9703C41.9033 23.0495 43.5221 23.8261 45.3267 22.9629C47.2347 22.0499 49.4976 18.564 50.3365 15.948C51.4759 12.3958 48.3313 9.14834 45.1166 9.87449H45.1169Z" fill="#87968F"/>
<path fill-rule="evenodd" clip-rule="evenodd" d="M35.2484 3.24137C33.5064 3.4934 32.3877 4.48173 31.6949 5.59515C30.8343 6.9785 31.1227 8.92898 31.5332 10.5216C32.2554 13.3225 33.7817 17.3143 36.7967 17.1254C38.1881 17.0383 40.0022 16.1681 39.4506 14.0954C38.892 11.9977 37.642 11.3434 38.2974 9.78796C38.8466 8.48452 39.8678 6.90447 39.1392 5.22633C38.5002 3.75451 36.8769 3.00618 35.2487 3.24137H35.2484Z" fill="#87968F"/>
<path fill-rule="evenodd" clip-rule="evenodd" d="M0.000267524 31.7017V41.1524L2.40322 41.1834C2.4361 39.5867 2.14425 35.6029 2.84528 34.5585C3.11575 34.1557 3.60109 33.6736 4.28743 33.615C7.19391 33.367 5.72797 39.1594 6.17591 41.2173L8.53824 41.1847C8.44683 39.9938 8.29182 35.6711 8.93486 34.5868C9.19624 34.1458 9.67865 33.6936 10.3495 33.6231C13.2773 33.3152 11.7171 38.3549 12.2347 41.2208L14.5682 41.1775C14.6043 39.7273 14.5768 38.247 14.5768 36.7939C14.5768 35.4714 14.6872 33.8064 14.0532 32.8052C13.0173 31.1688 10.1354 30.6522 8.18759 33.1257C7.76505 32.5826 7.74955 32.395 7.19631 32.0037C6.18686 31.2896 4.85082 31.3013 3.72805 31.7958C3.08688 32.078 2.77312 32.461 2.41098 32.7029L2.40376 31.6792L0 31.7017H0.000267524Z" fill="#5E7F95"/>
<path fill-rule="evenodd" clip-rule="evenodd" d="M77.4973 33.735C81.0575 32.8442 81.8542 38.4364 78.797 39.1505C75.2127 39.9879 74.2364 34.551 77.4973 33.735ZM80.5959 32.6542C80.3709 32.5959 78.345 30.4095 75.5337 31.974C72.2838 33.7826 72.3944 39.1695 75.5628 40.8755C76.3181 41.2822 77.2987 41.5888 78.3571 41.3752C79.4951 41.1454 79.9962 40.7926 80.5697 40.2236L80.6232 41.2197L82.9999 41.1895L82.9762 28.0314L80.597 28.0273L80.5957 32.6545L80.5959 32.6542Z" fill="#EE8F7A"/>
<path fill-rule="evenodd" clip-rule="evenodd" d="M54.8847 33.7477C56.5177 33.2746 57.8593 34.4169 58.0795 35.731C58.3805 37.5257 57.5739 38.8029 56.2563 39.1453C52.8155 40.039 51.6324 34.69 54.8844 33.7477H54.8847ZM58.0448 40.3009L58.0413 41.1915L60.4157 41.1842L60.4245 31.6748L58.0616 31.6766L58.0344 32.6388C57.77 32.5252 55.7012 30.4643 53.0451 31.9252C49.6664 33.7835 49.9302 39.2086 52.958 40.8609C53.6475 41.2369 54.6837 41.5637 55.7405 41.3866C57.3181 41.122 57.587 40.3544 58.0445 40.3012L58.0448 40.3009Z" fill="#DDA8A4"/>
<path fill-rule="evenodd" clip-rule="evenodd" d="M24.2696 32.5794L24.2747 31.6707L21.8955 31.6723C21.891 33.1348 21.8001 40.3939 21.9479 41.2211L24.2662 41.1815C24.3105 39.5913 24.0296 35.8197 24.6903 34.6641C24.9391 34.2287 25.4338 33.7369 26.098 33.6514C27.8055 33.4312 27.941 34.9679 27.9702 36.4358C28.0014 38.0145 27.9686 39.6106 27.9766 41.192L30.3175 41.1839C30.3552 39.3585 30.5704 34.3343 29.9415 33.0463C29.5558 32.2566 28.5915 31.5473 27.3539 31.4577C25.5009 31.3241 24.8464 32.5139 24.2694 32.5792L24.2696 32.5794Z" fill="#87968F"/>
<path fill-rule="evenodd" clip-rule="evenodd" d="M65.2258 32.6101L65.2047 31.6567L62.8638 31.6717L62.8384 41.1411L65.2234 41.1889C65.224 39.6583 65.1767 38.0505 65.2365 36.5249C65.2932 35.0828 65.7267 33.7724 67.0782 33.6444C68.7775 33.4835 68.8777 34.9446 68.906 36.4333C68.9357 38.0005 68.921 39.611 68.9117 41.1801L71.2716 41.1844L71.27 36.8825C71.27 35.559 71.4074 34.1826 70.8862 33.0821C70.1066 31.4357 67.795 30.8835 65.8427 32.1696C65.5973 32.3313 65.4899 32.4551 65.2264 32.6103L65.2258 32.6101Z" fill="#87968F"/>
<path fill-rule="evenodd" clip-rule="evenodd" d="M46.5359 41.2183L48.8798 41.183L48.8654 28.0877C48.2208 27.9225 47.1988 28.0043 46.4894 28.0281C46.4686 28.8809 46.4012 40.4954 46.5359 41.2186V41.2183Z" fill="#5E7F95"/>
<path fill-rule="evenodd" clip-rule="evenodd" d="M16.9903 41.183L19.3797 41.1894L19.3505 31.7505C18.851 31.615 17.5321 31.5648 17.0515 31.7478C16.8746 32.2687 16.9396 40.0677 16.9903 41.183Z" fill="#EE8F7A"/>
<path fill-rule="evenodd" clip-rule="evenodd" d="M32.7524 41.1907L35.1573 41.2019L35.1329 31.6911L32.7661 31.666L32.7524 41.1907Z" fill="#DDA8A4"/>
<path fill-rule="evenodd" clip-rule="evenodd" d="M43.8465 6.13125C41.9663 6.97232 42.9771 10.3019 44.7542 9.5621C46.4876 8.84049 45.6719 5.31449 43.8465 6.13125Z" fill="#87968F"/>
<path fill-rule="evenodd" clip-rule="evenodd" d="M38.5214 0.100843C36.5068 0.916796 37.3393 4.23086 39.1455 3.50497C39.7802 3.25 40.335 2.40919 40.2562 1.42727C40.1843 0.533278 39.4926 -0.292568 38.5211 0.100576L38.5214 0.100843Z" fill="#87968F"/>
<path fill-rule="evenodd" clip-rule="evenodd" d="M17.7079 27.8542C15.7475 28.5416 16.7968 31.4358 18.658 30.7858C20.4947 30.1443 19.6215 27.1831 17.7079 27.8542Z" fill="#EE8F7A"/>
<path fill-rule="evenodd" clip-rule="evenodd" d="M33.4777 27.8504C32.7502 28.115 32.2617 28.7917 32.4803 29.6964C32.6599 30.4397 33.4938 31.0905 34.356 30.8152C34.5914 30.7401 35.1182 30.3087 35.1957 30.1962C35.9384 29.1178 34.9431 27.3172 33.4777 27.8504Z" fill="#DDA8A4"/>
<path fill-rule="evenodd" clip-rule="evenodd" d="M35.4808 0.266921C34.2212 0.920111 35.0037 3.07425 36.1989 2.60921C37.4219 2.13349 36.6535 -0.341101 35.4808 0.266921Z" fill="#87968F"/>
<path fill-rule="evenodd" clip-rule="evenodd" d="M47.2381 6.92895C45.7831 7.28227 46.0183 9.64781 47.3228 9.30411C48.6482 8.95507 48.5463 6.61117 47.2381 6.92895Z" fill="#87968F"/>
<path fill-rule="evenodd" clip-rule="evenodd" d="M52.0273 48.8448L52.0332 47.8565C52.6995 47.8538 53.8819 47.6448 53.9674 48.2986C54.0732 49.1057 52.6794 48.8467 52.0273 48.8448ZM52.0345 46.7893C52.5597 46.7893 53.249 46.687 53.7234 46.8954L53.7146 47.4161C53.2864 47.5863 52.5616 47.5123 52.0252 47.5091L52.0345 46.7891V46.7893ZM53.9118 47.5545C53.9759 47.4011 54.2528 47.2966 54.0564 46.7957C53.8412 46.2473 52.4512 46.444 51.6868 46.4389L51.6719 49.2C52.5108 49.1942 54.0211 49.3532 54.2435 48.7115C54.4688 48.062 54.0874 47.8576 53.9113 47.5548L53.9118 47.5545Z" fill="#87968F"/>
<path fill-rule="evenodd" clip-rule="evenodd" d="M33.173 0.794489C31.9719 1.31004 32.8463 3.34257 34.0031 2.91522C35.0098 2.54319 34.2872 0.316356 33.173 0.794489Z" fill="#87968F"/>
<path fill-rule="evenodd" clip-rule="evenodd" d="M49.3715 8.00059C47.9459 8.41137 48.2209 10.5011 49.5262 10.066C50.708 9.67178 50.6452 7.63337 49.3715 8.00059Z" fill="#87968F"/>
<path fill-rule="evenodd" clip-rule="evenodd" d="M33.0819 48.7949L33.0896 46.819C35.9087 46.3749 35.5829 49.3947 33.0819 48.7949ZM32.7483 49.2303C33.5389 49.1242 35.364 49.5435 35.3723 47.84C35.3795 46.3516 34.1004 46.4615 32.7497 46.4414L32.748 49.2303H32.7483Z" fill="#87968F"/>
<path fill-rule="evenodd" clip-rule="evenodd" d="M31.3105 2.16108C31.2009 2.24473 31.2261 2.12633 31.0662 2.38424C30.6405 3.07164 31.4623 4.39192 32.3729 3.95093C32.8 3.74407 32.7938 3.01364 32.5474 2.54941C32.2978 2.07929 31.7381 1.83448 31.3105 2.16108Z" fill="#87968F"/>
<path fill-rule="evenodd" clip-rule="evenodd" d="M51.3618 9.60181C49.6991 9.46444 49.5209 11.2377 50.3574 11.467C50.9604 11.6322 51.4091 11.1819 51.5825 10.8721C51.9385 10.2366 51.7047 9.94578 51.3618 9.60208V9.60181Z" fill="#87968F"/>
<path fill-rule="evenodd" clip-rule="evenodd" d="M36.6628 46.9921C37.5939 46.5207 37.9045 47.0458 38.6299 47.1832C38.6053 46.7583 38.5753 46.7831 38.1247 46.6073C37.0415 46.1842 36.1742 46.6572 36.3354 47.3056C36.8349 48.256 37.7623 47.4916 38.4716 48.1964C38.478 48.7384 38.0921 48.8779 37.5036 48.8392C37.2869 48.825 37.0134 48.7515 36.8413 48.6783C36.7892 48.6561 36.5556 48.5238 36.5511 48.5222C36.1029 48.3608 36.4696 48.4733 36.31 48.5259C36.2707 48.6339 36.1716 48.3626 36.2803 48.709C36.3333 48.8777 36.5396 48.9378 36.6997 49.0035C36.918 49.0933 37.1516 49.1652 37.4143 49.185C38.9586 49.3023 39.2945 47.9845 38.1939 47.687C37.6268 47.5339 37.2494 47.6592 36.6729 47.4208L36.6631 46.9916L36.6628 46.9921Z" fill="#87968F"/>
<path fill-rule="evenodd" clip-rule="evenodd" d="M28.9167 47.4296C29.049 47.2986 29.2131 47.0923 29.3871 46.9418C29.5891 46.767 29.735 46.6882 29.9168 46.5102C29.5854 46.3311 29.3141 46.6067 28.9132 46.9988L27.9738 47.776C27.977 47.3807 28.0777 46.7398 27.8848 46.4375L27.7065 46.4399C27.5392 46.7002 27.6194 48.0029 27.6188 48.3746C27.617 49.461 27.5603 49.0735 27.7955 49.2042C28.0454 49.0655 27.9708 49.2176 27.9775 48.737C27.9807 48.516 27.9738 48.4217 27.997 48.1926L28.6841 47.6848C28.8434 47.989 29.0885 48.2386 29.3087 48.551C29.5477 48.8902 29.5592 49.2208 30.1113 49.1711L28.9164 47.4293L28.9167 47.4296Z" fill="#87968F"/>
<path fill-rule="evenodd" clip-rule="evenodd" d="M49.3558 49.195C50.1007 49.1878 50.4043 49.002 50.4494 48.3026L50.47 46.8559C50.4601 46.7014 50.4628 46.7351 50.4246 46.5959C50.4182 46.5726 50.389 46.5646 50.3834 46.5192C50.3775 46.4727 50.3511 46.4692 50.3348 46.4443C50.0894 46.567 50.2076 46.3874 50.1194 46.6715C50.0667 46.8418 50.28 48.5365 49.8615 48.7834C49.2508 48.8802 48.9263 48.9352 48.5396 48.5538L48.5072 46.4478L48.2173 46.4529C48.1523 46.8094 48.1464 48.0025 48.1881 48.3766C48.2611 49.0301 48.6428 49.2022 49.3558 49.195Z" fill="#87968F"/>
<path fill-rule="evenodd" clip-rule="evenodd" d="M44.0312 48.4423C43.9032 48.3741 44.2086 48.3239 43.8545 48.3896C43.6431 48.4289 43.4884 48.9319 42.6732 48.8322C42.143 48.7673 41.7918 48.3901 41.7822 47.8401C41.7728 47.3064 42.1521 46.8999 42.619 46.8101C43.371 46.6655 43.5258 47.095 43.8299 47.2719L44.0002 47.1276C43.5766 46.0358 41.3708 46.2114 41.4534 47.9238C41.544 49.804 44.2284 49.2403 44.0309 48.4423H44.0312Z" fill="#87968F"/>
<path fill-rule="evenodd" clip-rule="evenodd" d="M51.1993 11.7252C50.2684 12.0988 50.552 13.3426 51.5742 12.9981C52.569 12.663 52.3322 11.2703 51.1993 11.7252Z" fill="#87968F"/>
<path fill-rule="evenodd" clip-rule="evenodd" d="M30.14 4.20239C30.0419 5.11616 30.7093 5.57585 31.4795 5.28213C31.8946 4.27669 30.8667 3.4928 30.14 4.20239Z" fill="#87968F"/>
<path fill-rule="evenodd" clip-rule="evenodd" d="M45.346 46.4429C45.2688 46.5597 45.2703 46.3913 45.215 46.7652L45.2233 47.8404C45.223 48.3132 45.1792 48.7779 45.288 49.2261C45.6477 49.1727 46.0417 49.1941 46.415 49.1957C47.6803 49.2008 47.2182 49.259 47.3665 48.9987C47.2302 48.8947 47.2922 48.8538 46.8632 48.8413L45.5961 48.8453C45.5213 48.4388 45.5606 47.9911 45.5609 47.5734C45.5619 46.2178 45.6595 46.6019 45.3457 46.4434L45.346 46.4429Z" fill="#87968F"/>
<path fill-rule="evenodd" clip-rule="evenodd" d="M31.0926 48.731C31.0944 49.2275 31.014 49.0715 31.27 49.1968C31.4945 49.0899 31.4272 49.3956 31.4561 48.8301L31.4136 46.4397L31.1014 46.4395L31.0926 48.7312V48.731Z" fill="#87968F"/>
</svg>
