<?xml version="1.0" encoding="UTF-8"?>
<!DOCTYPE svg PUBLIC "-//W3C//DTD SVG 1.1//EN" "http://www.w3.org/Graphics/SVG/1.1/DTD/svg11.dtd">
<!-- Creator: CorelDRAW 2021.5 -->
<svg xmlns="http://www.w3.org/2000/svg" xml:space="preserve" width="8.5in" height="11in" version="1.1" style="shape-rendering:geometricPrecision; text-rendering:geometricPrecision; image-rendering:optimizeQuality; fill-rule:evenodd; clip-rule:evenodd"
viewBox="0 0 8500 11000"
 xmlns:xlink="http://www.w3.org/1999/xlink"
 xmlns:xodm="http://www.corel.com/coreldraw/odm/2003">
 <defs>
  <style type="text/css">
   <![CDATA[
    .fil1 {fill:#5E7F95}
    .fil0 {fill:#87968F}
    .fil3 {fill:#DDA8A4}
    .fil2 {fill:#EE8F7A}
    .fil4 {fill:#FEFEFE}
   ]]>
  </style>
 </defs>
 <g id="Layer_x0020_1">
  <metadata id="CorelCorpID_0Corel-Layer"/>
  <path class="fil0" d="M4579.13 3507.68c-58.51,13.21 -97.07,57.85 -93.18,130.57 5.61,104.69 46.64,91.01 -15.44,172.77 -21.06,27.74 -87.55,97.45 -44.88,149.24 33.26,40.38 93.83,69.44 161.35,37.14 71.39,-34.16 156.06,-164.59 187.45,-262.47 42.63,-132.91 -75.03,-254.42 -195.31,-227.25z"/>
  <path class="fil0" d="M4209.89 3259.48c-65.18,9.43 -107.04,46.41 -132.96,88.07 -32.2,51.76 -21.41,124.74 -6.05,184.33 27.02,104.8 84.13,254.16 196.94,247.09 52.06,-3.26 119.94,-35.82 99.3,-113.37 -20.9,-78.49 -67.67,-102.97 -43.15,-161.17 20.55,-48.77 58.76,-107.89 31.5,-170.68 -23.91,-55.07 -84.65,-83.07 -145.57,-74.27z"/>
  <path class="fil1" d="M2891.03 4324.36l0 353.61 89.91 1.16c1.23,-59.74 -9.69,-208.8 16.54,-247.88 10.12,-15.07 28.28,-33.11 53.96,-35.3 108.75,-9.28 53.9,207.45 70.66,284.45l88.39 -1.22c-3.42,-44.56 -9.22,-206.3 14.84,-246.87 9.78,-16.5 27.83,-33.42 52.93,-36.06 109.55,-11.52 51.17,177.05 70.54,284.28l87.31 -1.62c1.35,-54.26 0.32,-109.65 0.32,-164.02 0,-49.48 4.13,-111.78 -19.59,-149.24 -38.76,-61.23 -146.59,-80.56 -219.47,11.99 -15.81,-20.32 -16.39,-27.34 -37.09,-41.98 -37.77,-26.72 -87.76,-26.28 -129.77,-7.78 -23.99,10.56 -35.73,24.89 -49.28,33.94l-0.27 -38.3 -89.94 0.84z"/>
  <path class="fil2" d="M5790.69 4400.45c133.21,-33.33 163.02,175.91 48.63,202.63 -134.11,31.33 -170.64,-172.1 -48.63,-202.63zm115.94 -40.44c-8.42,-2.18 -84.22,-83.99 -189.41,-25.45 -121.6,67.67 -117.46,269.23 1.09,333.06 28.26,15.22 64.95,26.69 104.55,18.7 42.58,-8.6 61.33,-21.8 82.79,-43.09l2 37.27 88.93 -1.13 -0.89 -492.33 -89.02 -0.15 -0.05 173.13z"/>
  <path class="fil3" d="M4944.61 4400.93c61.1,-17.7 111.3,25.04 119.54,74.21 11.26,67.15 -18.92,114.94 -68.22,127.75 -128.74,33.44 -173.01,-166.7 -51.33,-201.96zm118.24 245.2l-0.13 33.32 88.84 -0.27 0.33 -355.81 -88.41 0.07 -1.02 36c-9.89,-4.25 -87.3,-81.36 -186.68,-26.7 -126.42,69.53 -116.55,272.52 -3.26,334.34 25.8,14.07 64.57,26.3 104.11,19.67 59.03,-9.9 69.09,-38.62 86.21,-40.61z"/>
  <path class="fil0" d="M3799.1 4357.21l0.19 -34 -89.02 0.06c-0.17,54.72 -3.57,326.33 1.96,357.28l86.74 -1.48c1.66,-59.5 -8.85,-200.62 15.87,-243.86 9.31,-16.29 27.82,-34.69 52.67,-37.89 63.89,-8.24 68.96,49.26 70.05,104.18 1.17,59.07 -0.06,118.79 0.24,177.96l87.59 -0.3c1.41,-68.3 9.46,-256.29 -14.07,-304.48 -14.43,-29.55 -50.51,-56.09 -96.82,-59.44 -69.33,-5 -93.82,39.52 -115.41,41.96z"/>
  <path class="fil0" d="M5331.54 4358.36l-0.79 -35.67 -87.59 0.56 -0.95 354.31 89.24 1.79c0.02,-57.27 -1.75,-117.43 0.49,-174.51 2.12,-53.96 18.34,-102.99 68.91,-107.78 63.58,-6.02 67.33,48.65 68.39,104.35 1.11,58.64 0.56,118.9 0.21,177.61l88.3 0.16 -0.06 -160.96c0,-49.52 5.14,-101.02 -14.36,-142.2 -29.17,-61.6 -115.66,-82.26 -188.71,-34.14 -9.18,6.05 -13.2,10.68 -23.06,16.49z"/>
  <path class="fil1" d="M4632.23 4680.45l87.7 -1.32 -0.54 -489.98c-24.12,-6.18 -62.36,-3.12 -88.9,-2.23 -0.78,31.91 -3.3,466.48 1.74,493.54z"/>
  <path class="fil4" d="M5790.69 4400.45c-122.02,30.54 -85.49,233.96 48.63,202.63 114.39,-26.72 84.58,-235.97 -48.63,-202.63z"/>
  <path class="fil4" d="M4944.61 4400.93c-121.69,35.26 -77.42,235.4 51.33,201.96 49.3,-12.8 79.47,-60.59 68.22,-127.75 -8.24,-49.17 -58.44,-91.92 -119.54,-74.21z"/>
  <path class="fil2" d="M3526.73 4679.13l89.4 0.24 -1.09 -353.17c-18.69,-5.07 -68.04,-6.95 -86.02,-0.1 -6.62,19.49 -4.19,311.3 -2.29,353.03z"/>
  <polygon class="fil3" points="4116.5,4679.42 4206.48,4679.84 4205.57,4323.98 4117.01,4323.04 "/>
  <path class="fil0" d="M4531.6 3367.62c-70.35,31.47 -32.53,156.05 33.96,128.37 64.86,-27 34.34,-158.93 -33.96,-128.37z"/>
  <path class="fil0" d="M4332.35 3141.98c-75.38,30.53 -44.23,154.53 23.35,127.37 23.75,-9.54 44.51,-41 41.56,-77.74 -2.69,-33.45 -28.57,-64.35 -64.92,-49.64z"/>
  <path class="fil2" d="M3553.59 4180.41c-73.35,25.72 -34.09,134.01 35.55,109.69 68.72,-24 36.05,-134.8 -35.55,-109.69z"/>
  <path class="fil3" d="M4143.63 4180.27c-27.22,9.9 -45.5,35.22 -37.32,69.07 6.72,27.81 37.92,52.16 70.18,41.86 8.81,-2.81 28.52,-18.95 31.42,-23.16 27.79,-40.35 -9.45,-107.72 -64.28,-87.77z"/>
  <path class="fil0" d="M4218.59 3148.19c-47.13,24.44 -17.85,105.04 26.87,87.64 45.76,-17.8 17.01,-110.39 -26.87,-87.64z"/>
  <path class="fil0" d="M4658.49 3397.46c-54.44,13.22 -45.64,101.73 3.17,88.87 49.59,-13.06 45.78,-100.76 -3.17,-88.87z"/>
  <path class="fil0" d="M4837.69 4965.81l0.22 -36.98c24.93,-0.1 69.17,-7.92 72.37,16.54 3.96,30.2 -48.19,20.51 -72.59,20.44zm0.27 -76.91c19.65,0 45.44,-3.83 63.19,3.97l-0.33 19.48c-16.02,6.37 -43.14,3.6 -63.21,3.48l0.35 -26.94zm70.24 28.63c2.4,-5.74 12.76,-9.65 5.41,-28.39 -8.05,-20.52 -60.06,-13.16 -88.66,-13.35l-0.56 103.31c31.39,-0.22 87.9,5.73 96.22,-18.28 8.43,-24.3 -5.84,-31.95 -12.43,-43.28z"/>
  <path class="fil4" d="M4128.82 4963.94c93.58,22.44 105.77,-90.54 0.29,-73.93l-0.29 73.93z"/>
  <path class="fil0" d="M4132.24 3167.94c-44.94,19.29 -12.22,95.34 31.06,79.35 37.67,-13.92 10.63,-97.24 -31.06,-79.35z"/>
  <path class="fil0" d="M4738.32 3437.56c-53.34,15.37 -43.05,93.56 5.79,77.28 44.22,-14.75 41.87,-91.02 -5.79,-77.28z"/>
  <path class="fil0" d="M4128.82 4963.94l0.29 -73.93c105.48,-16.62 93.29,96.37 -0.29,73.93zm-12.48 16.29c29.58,-3.97 97.87,11.72 98.18,-52.02 0.27,-55.69 -47.59,-51.58 -98.13,-52.33l-0.06 104.35z"/>
  <path class="fil0" d="M4062.55 3219.07c-4.1,3.13 -3.16,-1.3 -9.14,8.35 -15.93,25.72 14.82,75.12 48.89,58.62 15.98,-7.74 15.75,-35.07 6.53,-52.44 -9.34,-17.59 -30.28,-26.75 -46.28,-14.53z"/>
  <path class="fil0" d="M4812.79 3497.48c-62.21,-5.14 -68.88,61.21 -37.58,69.79 22.56,6.18 39.35,-10.67 45.84,-22.26 13.32,-23.78 4.57,-34.66 -8.26,-47.52z"/>
  <path class="fil0" d="M4262.81 4896.48c34.84,-17.64 46.46,2.01 73.6,7.15 -0.92,-15.9 -2.04,-14.97 -18.9,-21.55 -40.53,-15.83 -72.98,1.87 -66.95,26.13 18.69,35.56 53.39,6.96 79.93,33.33 0.24,20.28 -14.2,25.5 -36.22,24.05 -8.11,-0.53 -18.34,-3.28 -24.78,-6.02 -1.95,-0.83 -10.69,-5.78 -10.86,-5.84 -16.77,-6.04 -3.05,-1.83 -9.02,0.14 -1.47,4.04 -5.18,-6.11 -1.11,6.85 1.98,6.31 9.7,8.56 15.69,11.02 8.17,3.36 16.91,6.05 26.74,6.79 57.78,4.39 70.35,-44.92 29.17,-56.05 -21.22,-5.73 -35.34,-1.04 -56.91,-9.96l-0.37 -16.06z"/>
  <path class="fil0" d="M3972.97 4912.85c4.95,-4.9 11.09,-12.62 17.6,-18.25 7.56,-6.54 13.02,-9.49 19.82,-16.15 -12.4,-6.7 -22.55,3.61 -37.55,18.28l-35.15 29.08c0.12,-14.79 3.89,-38.77 -3.33,-50.08l-6.67 0.09c-6.26,9.74 -3.26,58.48 -3.28,72.39 -0.07,40.65 -2.19,26.15 6.61,31.04 9.35,-5.19 6.56,0.5 6.81,-17.48 0.12,-8.27 -0.14,-11.8 0.73,-20.37l25.71 -19c5.96,11.38 15.13,20.72 23.37,32.41 8.94,12.69 9.37,25.06 30.03,23.2l-44.71 -65.17z"/>
  <path class="fil0" d="M4737.74 4978.9c27.87,-0.27 39.23,-7.22 40.92,-33.39l0.77 -54.13c-0.37,-5.78 -0.27,-4.52 -1.7,-9.73 -0.24,-0.87 -1.33,-1.17 -1.54,-2.87 -0.22,-1.74 -1.21,-1.87 -1.82,-2.8 -9.18,4.59 -4.76,-2.13 -8.06,8.5 -1.97,6.37 6.01,69.78 -9.65,79.02 -22.85,3.62 -34.99,5.68 -49.46,-8.59l-1.21 -78.8 -10.85 0.19c-2.43,13.34 -2.65,57.98 -1.09,71.98 2.73,24.45 17.01,30.89 43.69,30.62z"/>
  <path class="fil0" d="M4538.51 4950.74c-4.79,-2.55 6.64,-4.43 -6.61,-1.97 -7.91,1.47 -13.7,20.29 -44.2,16.56 -19.84,-2.43 -32.98,-16.54 -33.34,-37.12 -0.35,-19.97 13.84,-35.18 31.31,-38.54 28.14,-5.41 33.93,10.66 45.31,17.28l6.37 -5.4c-15.85,-40.85 -98.38,-34.28 -95.29,29.79 3.39,70.35 103.83,49.26 96.44,19.4z"/>
  <path class="fil4" d="M4837.69 4965.81c24.4,0.07 76.55,9.76 72.59,-20.44 -3.2,-24.45 -47.44,-16.64 -72.37,-16.54l-0.22 36.98z"/>
  <path class="fil0" d="M4806.72 3576.91c-34.83,13.98 -24.22,60.52 14.03,47.63 37.22,-12.54 28.36,-64.65 -14.03,-47.63z"/>
  <path class="fil0" d="M4018.75 3295.44c-3.67,34.19 21.3,51.39 50.12,40.4 15.53,-37.62 -22.93,-66.95 -50.12,-40.4z"/>
  <path class="fil0" d="M4587.7 4875.93c-2.89,4.37 -2.83,-1.93 -4.9,12.06l0.31 40.23c-0.01,17.69 -1.65,35.08 2.42,51.85 13.46,-2 28.2,-1.2 42.17,-1.14 47.34,0.19 30.05,2.37 35.6,-7.37 -5.1,-3.89 -2.78,-5.42 -18.83,-5.89l-47.41 0.15c-2.8,-15.21 -1.33,-31.96 -1.32,-47.59 0.04,-50.72 3.69,-36.35 -8.05,-42.28z"/>
  <path class="fil4" d="M4837.61 4915.84c20.07,0.12 47.19,2.88 63.21,-3.48l0.33 -19.48c-17.74,-7.8 -43.54,-3.97 -63.19,-3.97l-0.35 26.94z"/>
  <path class="fil0" d="M4054.39 4961.55c0.07,18.58 -2.94,12.74 6.64,17.43 8.4,-4 5.88,7.44 6.96,-13.72l-1.59 -89.44 -11.68 -0.01 -0.33 85.75z"/>
 </g>
</svg>
